<?xml version="1.0" encoding="UTF-8" standalone="no"?>
<!-- Created with Inkscape (http://www.inkscape.org/) -->

<svg
   width="11in"
   height="8.5in"
   viewBox="0 0 279.4 215.9"
   version="1.1"
   id="svg1"
   inkscape:version="1.3.1 (9b9bdc1480, 2023-11-25, custom)"
   sodipodi:docname="clockwise.svg"
   xmlns:inkscape="http://www.inkscape.org/namespaces/inkscape"
   xmlns:sodipodi="http://sodipodi.sourceforge.net/DTD/sodipodi-0.dtd"
   xmlns="http://www.w3.org/2000/svg"
   xmlns:svg="http://www.w3.org/2000/svg">
  <sodipodi:namedview
     id="namedview1"
     pagecolor="#ffffff"
     bordercolor="#000000"
     borderopacity="0.25"
     inkscape:showpageshadow="2"
     inkscape:pageopacity="0.0"
     inkscape:pagecheckerboard="0"
     inkscape:deskcolor="#d1d1d1"
     inkscape:document-units="mm"
     inkscape:zoom="0.93739124"
     inkscape:cx="283.23286"
     inkscape:cy="300.8349"
     inkscape:window-width="1920"
     inkscape:window-height="1016"
     inkscape:window-x="0"
     inkscape:window-y="0"
     inkscape:window-maximized="1"
     inkscape:current-layer="layer1" />
  <defs
     id="defs1">
    <rect
       x="671.64654"
       y="29.741867"
       width="359.05397"
       height="88.126713"
       id="rect10" />
    <rect
       x="671.64655"
       y="29.741867"
       width="477.14848"
       height="91.094739"
       id="rect10-2" />
  </defs>
  <g
     inkscape:label="Layer 1"
     inkscape:groupmode="layer"
     id="layer1">
    <circle
       style="fill:#ff3333;stroke-width:0.264583;fill-opacity:1"
       id="path1"
       cx="142.47452"
       cy="123.14941"
       r="80.219131" />
    <circle
       style="fill:#ffffff;fill-opacity:1;stroke-width:0.228869"
       id="path1-5"
       cx="142.4211"
       cy="123.43373"
       r="69.391083" />
    <circle
       style="fill:#506597;fill-opacity:1;stroke-width:0.264583"
       id="path2"
       cx="143.09726"
       cy="122.27094"
       r="3.5303175" />
    <g
       id="path3">
      <path
         style="color:#000000;fill:#000000;-inkscape-stroke:none"
         d="M 143.06658,122.35354 V 62.798724"
         id="path5" />
      <path
         style="color:#000000;fill:#000000;-inkscape-stroke:none"
         d="m 142.06641,62.798828 v 59.554692 h 2 V 62.798828 Z"
         id="path11" />
      <g
         id="g2">
        <path
           style="color:#000000;fill:#000000;-inkscape-stroke:none"
           d="m 143.06641,60.884766 -6.70704,6.707031 1.41407,1.414062 5.29297,-5.292968 5.29296,5.292968 1.41407,-1.414062 z"
           id="path4" />
      </g>
    </g>
    <g
       id="path7">
      <path
         style="color:#000000;fill:#000000;-inkscape-stroke:none"
         d="m 142.80055,121.6477 22.11755,23.00059"
         id="path13" />
      <path
         style="color:#000000;fill:#000000;-inkscape-stroke:none"
         d="m 143.52148,120.95508 -1.4414,1.38672 22.11719,23 1.4414,-1.38672 z"
         id="path14" />
      <g
         id="g12">
        <path
           style="color:#000000;fill:#000000;-inkscape-stroke:none"
           d="m 164.43164,136.50586 -0.14648,7.48437 -7.48438,-0.14648 -0.0391,1.99805 9.48242,0.18554 0.18555,-9.48242 z"
           id="path12" />
      </g>
    </g>
    <g
       id="path9">
      <path
         style="color:#000000;fill:#000000;fill-opacity:0;-inkscape-stroke:none"
         d="m 122.52883,31.112567 c 0,0 -39.535804,-0.50992 -63.758975,40.80579"
         id="path16" />
      <path
         style="color:#000000;fill:#000000;-inkscape-stroke:none"
         d="m 122.55273,29.314453 c 0,0 -40.675593,-0.364667 -65.33398,41.693359 l 3.103516,1.820313 C 84.110172,32.254814 122.50586,32.912109 122.50586,32.912109 Z"
         id="path17" />
      <g
         id="g15">
        <path
           style="color:#000000;fill:#000000;-inkscape-stroke:none"
           d="m 56.203125,57.46875 -3.480469,0.908203 4.304688,16.511719 16.511718,-4.306641 -0.90625,-3.480469 L 59.601562,70.5 Z"
           id="path15" />
      </g>
    </g>
    <g
       id="path9-6">
      <path
         style="color:#000000;fill:#000000;fill-opacity:0;-inkscape-stroke:none"
         d="m 165.95243,30.977973 c 0,0 39.5358,-0.50992 63.75897,40.80579"
         id="path19" />
      <path
         style="color:#000000;fill:#000000;-inkscape-stroke:none"
         d="m 165.92969,29.179687 0.0469,3.597657 c 0,0 38.39569,-0.657296 62.1836,39.916015 l 3.10351,-1.820312 C 206.60529,28.815021 165.92969,29.179688 165.92969,29.179687 Z"
         id="path20" />
      <g
         id="g18">
        <path
           style="color:#000000;fill:#000000;-inkscape-stroke:none"
           d="m 232.27734,57.333984 -3.39843,13.03125 -13.0293,-3.398437 -0.9082,3.480469 16.51171,4.30664 4.30665,-16.511719 z"
           id="path18" />
      </g>
    </g>
    <text
       xml:space="preserve"
       transform="matrix(0.26458333,0,0,0.26458333,15.591672,4.0745404)"
       id="text10"
       style="font-size:48px;font-family:Roboto;-inkscape-font-specification:Roboto;white-space:pre;shape-inside:url(#rect10);display:inline;fill:#000000;fill-opacity:0;stroke:#000000;stroke-width:0;stroke-dasharray:none"><tspan
         x="671.64648"
         y="71.742188"
         id="tspan2"><tspan
           style="font-weight:bold;fill-opacity:1"
           id="tspan1">Clockwise</tspan></tspan></text>
    <text
       xml:space="preserve"
       transform="matrix(0.26458333,0,0,0.26458333,-167.24762,3.4920356)"
       id="text10-1"
       style="font-size:48px;font-family:Roboto;-inkscape-font-specification:Roboto;white-space:pre;shape-inside:url(#rect10-2);display:inline;fill:#000000;fill-opacity:0;stroke:#000000;stroke-width:0;stroke-dasharray:none"><tspan
         x="671.64648"
         y="71.742188"
         id="tspan4"><tspan
           style="font-weight:bold;fill-opacity:1"
           id="tspan3">Counter-clockwise</tspan></tspan></text>
  </g>
</svg>
